<?xml version="1.0" encoding="utf-8"?>
<!DOCTYPE svg PUBLIC "-//W3C//DTD SVG 20010904//EN" "http://www.w3.org/TR/2001/REC-SVG-20010904/DTD/svg10.dtd">
<svg version="1.0" xmlns="http://www.w3.org/2000/svg" width="888px" height="355px" viewBox="0 0 888 355" preserveAspectRatio="xMidYMid meet">
 <g fill="#000000" fill-rule="evenodd">
  <path d="M538.6 323 C536.5 321.5 533.3 313.3 531.6 305 C529 292.4 524.8 251.8 525.9 250.5 C526.5 249.8 528.7 248.4 530.9 247.5 C533.1 246.5 535 245 535 244.2 C535 236.2 520.5 195 517.7 195 C517.2 194.9 511.1 197 504.2 199.5 C473.8 210.5 444.9 218.7 420.5 223.1 C402.8 226.2 377.2 226.3 367.5 223.2 C355.1 219.4 349.5 213.4 349.6 204.5 C349.9 183.8 384.7 156.4 441.6 132.1 C471.6 119.3 492.4 113 505 113 C515.6 112.9 527 117.3 528.5 122 C529.5 125.1 528.1 128 525.6 128 C522 128 520.8 126.1 522.6 123.4 C524 121.3 523.9 120.9 522 119 C517.5 114.5 494.7 117.3 472.2 125.1 C417.7 144.2 369.3 174.1 357.5 195.9 C345.5 218.3 368.5 227.8 415.6 219.9 C431.6 217.2 456.1 210.9 477.4 203.9 C496.2 197.8 513.7 191.5 514.7 190.5 C515.5 189.7 512 184.9 505.6 178.2 L499.6 172 479.8 172 C460.2 172 455 171.2 455 168.4 C455 166.4 457.3 165.1 464 163.4 C472.2 161.3 481.4 162 490.7 165.6 C495.6 167.5 501.1 168.5 511 169.4 C531.3 171.3 541 174.7 541 179.9 C541 182.3 535.2 186.9 527.7 190.6 C524.5 192.1 522.1 193.6 522.2 193.9 C527.7 203.3 535.3 223.8 538.5 237.9 C540 244.5 540.3 245.1 542.3 244.6 C558.1 240.6 608 236.6 664.7 234.8 C701.3 233.7 775.7 234.9 799.4 237 C820 238.9 833.3 242.5 834.7 246.8 C835.3 248.5 831 248.2 830.3 246.5 C829.4 244.1 811.5 241.2 783.5 238.9 C761.6 237.2 686.2 236.6 656.5 237.8 C609.5 239.9 568.4 243.3 550.5 246.8 C542.7 248.3 541.5 248.8 541.6 250.5 C541.6 251.6 542.5 258.5 543.5 266 C545.7 282.5 546.2 319.6 544.2 322.3 C542.8 324.2 540.6 324.4 538.6 323 M537.5 313.6 C536.1 306.7 530 255.3 530.5 253.9 C530.8 253 532 251.8 533.3 251.2 C535.7 250.1 535.7 250.2 536.8 257.3 C539.8 276.9 541.1 311.2 539 314.5 C538.1 315.7 537.9 315.6 537.5 313.6 M515.5 184.1 C513.5 181.4 510.1 177.6 507.9 175.6 L503.9 172 509.9 172 C517.1 172 530.8 173.8 533.2 175.1 C534.2 175.6 535 176.5 535 177 C535 178.9 529.1 183.9 524 186.5 L519 189 515.5 184.1 M461.7 168.5 C466.5 164.8 477.8 164.2 487.5 167.2 L491.5 168.4 483.2 169.2 C478.7 169.6 471.6 170 467.5 170 C460.8 170 460.2 169.8 461.7 168.5 "/>
  <path d="M54.7 252 C38.1 250 31 243 31 229 C31.1 221.8 33.1 213.2 40.4 190.5 C49.3 162.2 57.9 125.8 59.5 109.2 C60.2 102.2 60.1 101.9 57.6 99.9 C54.2 97.2 54.2 95.7 57.7 96.1 C61.4 96.6 63.9 101.7 63.9 108.7 C64 120.2 56.8 151 43.4 197.6 C36.4 222 35 228.1 34.9 234 C34.9 243.3 36.7 245.2 47 247 C53.2 248.1 58.6 248 79.5 246.6 C103.3 245.1 160 240 160.8 239.3 C161.1 239.1 160.1 235.5 158.7 231.2 C155.9 222.7 153.6 210.2 151.9 194 C150.2 177.6 151.2 179 142.2 178.9 C132.5 178.8 125.8 177.8 126.2 176.5 C126.3 175.8 130.9 175.6 138.3 175.8 L150.2 176.2 149.6 173.3 C146.5 157.5 145.5 113.2 147.8 97.5 C150.1 82.4 152.5 79.2 158.1 83.9 C160.1 85.6 160.2 85.9 158.6 85.9 C156.1 86 154.3 90.9 152.9 101.5 C151.7 110.2 152.2 157.7 153.6 170.8 L154.2 176.2 163.5 175.8 C171.3 175.4 173.4 175 176 173.1 C179.2 170.7 182 170.6 182.7 172.7 C183.5 175.1 174.6 178 164.5 178.6 C158.2 179 155 179.7 155 180.4 C155 183 160 220.4 161 224.8 C161.6 227.3 162.7 231.6 163.6 234.2 C165 238.7 165.3 238.9 168.8 238.9 C170.8 238.9 173 238.6 173.6 238.2 C176 236.7 181.2 218.7 181.7 210.2 C182 205.7 182.5 202 182.9 202 C183.3 202 184.4 202.8 185.4 203.9 C186.9 205.6 187.1 207 186.5 212.8 C186.2 216.7 184.8 223.8 183.5 228.6 C182.2 233.5 181.2 237.5 181.3 237.6 C181.4 237.7 189.1 237 198.5 236.2 C224 233.9 289.3 234 306 236.3 C324.3 238.9 346.7 245.2 352.4 249.5 C355.8 252 353.6 251.9 345.4 249 C335.6 245.5 321.9 242.5 308 240.8 C293.6 239 222.6 239 198 240.8 C179.7 242.2 179.6 242.2 177.2 245.1 C174.3 248.6 170.9 248.8 166.7 245.8 L163.6 243.6 135.5 246.3 C120.1 247.8 102.2 249.7 95.7 250.5 C79.4 252.5 63.3 253.1 54.7 252 "/>
  <path d="M295.7 225.7 C291.8 223.5 288.1 215.8 284.9 203.5 C283.1 196.9 281.3 190.7 280.8 189.7 C278.3 185 275.1 189.7 269 206.8 C263.2 223 261.3 226 258.2 224.1 C254.5 221.8 254.2 210.9 256.5 159 C257.3 140.5 257.9 124.2 257.9 122.7 C257.9 120.7 258.5 120 259.8 120 C263.1 120 264.2 122.4 263.6 128.7 C263.2 131.9 262.3 146.6 261.5 161.5 C260.7 176.3 259.8 192.1 259.5 196.5 C259.3 200.9 259.4 206.4 259.8 208.9 L260.5 213.3 264.3 202.4 C270.3 185.2 273.7 181.2 279.8 184.4 C284.3 186.7 286.7 191.6 289.5 204 C292.1 216.1 294.4 221.2 297.4 221.8 C298.4 222 301 221.6 303.2 220.9 C306.5 219.8 307.2 219.8 308.6 221.2 C310 222.6 309.9 222.9 307.6 224.4 C303.9 226.6 298.4 227.2 295.7 225.7 "/>
  <path d="M121.2 223.2 C119.7 221 119.4 217.6 119.1 202 L118.8 183.5 120.9 185.4 C122.8 187.1 123 188.4 123 202.8 C123 217.3 123.1 218.5 125.1 220.6 C126.8 222.4 127 223.2 126.1 224.4 C124.4 226.6 123.2 226.3 121.2 223.2 "/>
  <path d="M198 224.9 C188.4 221.6 190.4 209.1 203.1 192.2 C212.6 179.6 224 168.9 224 172.6 C224 172.9 221.6 175.8 218.6 178.9 C211.3 186.8 201 200.6 198.8 205.5 C196.1 211.3 196.4 216.1 199.5 219 C201.9 221.2 202.9 221.4 210.8 221.4 C224.6 221.2 237 216.3 241.1 209.3 C245.5 201.7 242.4 192.7 234.2 189.3 C231.4 188.1 231 187.6 232 186.4 C236.1 181.5 249 191.2 249 199.3 C249 203.6 245.4 210.3 241.3 213.9 C231.4 222.6 208.3 228.5 198 224.9 "/>
  <path d="M734.2 223.2 C732.7 221 732.4 217.6 732.1 202 L731.8 183.5 733.9 185.4 C735.8 187.1 736 188.4 736 202.8 C736 217.3 736.1 218.5 738.1 220.6 C739.8 222.4 740 223.2 739.1 224.4 C737.4 226.6 736.2 226.3 734.2 223.2 "/>
  <path d="M79.4 223.6 C73.3 221.8 69.9 219.1 67.5 214.5 C65.8 211 65.7 210 66.8 205 C68.1 198.7 71.7 193.1 77.3 188.5 C82.5 184.4 89.4 184.3 96.3 188.3 C107.2 194.7 101.7 201.4 81.5 206.4 C72.6 208.6 72.5 208.7 72.7 211.6 C73.2 218.2 78.4 222.4 86 222.3 C91.1 222.2 98.3 219 100.2 215.9 C101.6 213.7 107 213.2 107 215.3 C107 217 103.3 220.3 99.2 222.3 C94.6 224.6 84.9 225.2 79.4 223.6 M74 202.2 C77 194.6 84.2 187 88.4 187 C89.8 187 92.1 188 93.5 189.3 C98.9 193.9 94.9 198.6 82.2 202.9 C73.6 205.7 72.7 205.6 74 202.2 "/>
  <path d="M610 221.9 C607.2 219 606 216.1 604.4 208.6 L603.8 205.7 599.7 209.9 C597.2 212.3 591.7 216 586.3 218.6 C578.8 222.4 575.8 223.3 570.1 223.7 C560.8 224.4 554.8 222.7 550.9 218.3 C548.4 215.3 548 214.1 548 209.1 C548 198.4 556.7 185.7 567.9 180 C576.4 175.7 588.2 176.3 594.5 181.5 L597.5 183.9 594.7 183.9 C593.2 183.9 590.5 183.1 588.7 182 C583.7 178.9 576.4 179.2 570.9 182.8 C562.3 188.3 555.1 198.6 553.4 208.1 C552.1 215.2 557.9 222 565.4 222 C573.5 222 591.3 212.6 598.7 204.5 C602.9 199.9 605.8 198.9 607.8 201.2 C608.4 201.9 609.5 205.8 610.4 209.9 C611.4 215.1 612.8 218.5 614.9 221.1 L618 225 615.5 225 C614 225 611.7 223.7 610 221.9 "/>
  <path d="M684.5 223 C670.2 219.8 662 214 662 207 C662 198.4 688.4 183.6 705.4 182.7 C711.5 182.4 712.6 184.4 706.9 185.3 C702.4 186.1 694.1 189.4 681.6 195.5 C668.4 202 664.4 209.2 671.2 214.3 C677.7 219.1 694.6 222.6 706.3 221.6 C714.6 220.8 717.2 219.6 716.8 216.6 C716.5 214.8 716.9 214.5 718.9 214.7 C723.7 215.3 724.4 220.2 720 222.4 C714.9 225 694.7 225.4 684.5 223 "/>
  <path d="M808 221.9 C805.2 219 804 216.1 802.4 208.6 L801.8 205.7 797.7 209.9 C795.2 212.3 789.7 216 784.3 218.6 C776.8 222.4 773.8 223.3 768.1 223.7 C758.8 224.4 752.8 222.7 748.9 218.3 C746.4 215.3 746 214.1 746 209.1 C746 198.4 754.7 185.7 765.9 180 C774.4 175.7 786.2 176.3 792.5 181.5 L795.5 183.9 792.7 183.9 C791.2 183.9 788.5 183.1 786.7 182 C781.7 178.9 774.4 179.2 768.9 182.8 C760.3 188.3 753.1 198.6 751.4 208.1 C750.1 215.2 755.9 222 763.4 222 C771.5 222 789.3 212.6 796.7 204.5 C800.9 199.9 803.8 198.9 805.8 201.2 C806.4 201.9 807.5 205.8 808.4 209.9 C809.4 215.1 810.8 218.5 812.9 221.1 L816 225 813.5 225 C812 225 809.7 223.7 808 221.9 "/>
  <path d="M623.4 219.8 C621.3 217.2 620.8 215.7 621.1 212 C621.4 207.1 620 202.2 616.3 194.7 C613.4 188.8 613.4 188.7 616.7 189.1 C618.9 189.4 620 190.6 622.5 195.5 C624.1 198.8 625.6 201.7 625.7 201.9 C625.9 202.2 627.3 201.6 628.7 200.6 C638.4 194.5 655.8 187.5 660.1 188.1 C664.5 188.8 662.8 190.6 655.9 192.3 C646 194.9 635.7 200.3 631.6 205 L628.2 209 629.6 214.1 C631.8 222.6 628.3 225.8 623.4 219.8 "/>
  <path d="M118.5 174.5 C117.1 173.1 116 171.5 116 170.8 C116 170.1 114.1 167.4 111.8 164.7 C109 161.4 108 159.5 108.7 158.8 C110.2 157.3 113 159.1 118 164.7 C123.3 170.7 124.5 173.4 122.5 175.5 C121.1 176.8 120.7 176.7 118.5 174.5 "/>
  <path d="M731.5 174.5 C730.1 173.1 729 171.5 729 170.8 C729 170.1 727.1 167.4 724.8 164.7 C722 161.4 721 159.5 721.7 158.8 C723.2 157.3 726 159.1 731 164.7 C736.3 170.7 737.5 173.4 735.5 175.5 C734.1 176.8 733.7 176.7 731.5 174.5 "/>
 </g>
 <g fill="#ffffff" fill-rule="evenodd">
  <path d="M0 177.5 L0 0 444 0 L888 0 888 177.5 L888 355 444 355 L0 355 0 177.5 M538.6 323 C536.5 321.5 533.3 313.3 531.6 305 C529 292.4 524.8 251.8 525.9 250.5 C526.5 249.8 528.7 248.4 530.9 247.5 C533.1 246.5 535 245 535 244.2 C535 236.2 520.5 195 517.7 195 C517.2 194.9 511.1 197 504.2 199.5 C473.8 210.5 444.9 218.7 420.5 223.1 C402.8 226.2 377.2 226.3 367.5 223.2 C355.1 219.4 349.5 213.4 349.6 204.5 C349.9 183.8 384.7 156.4 441.6 132.1 C471.6 119.3 492.4 113 505 113 C515.6 112.9 527 117.3 528.5 122 C529.5 125.1 528.1 128 525.6 128 C522 128 520.8 126.1 522.6 123.4 C524 121.3 523.9 120.9 522 119 C517.5 114.5 494.7 117.3 472.2 125.1 C417.7 144.2 369.3 174.1 357.5 195.9 C345.5 218.3 368.5 227.8 415.6 219.9 C431.6 217.2 456.1 210.9 477.4 203.9 C496.2 197.8 513.7 191.5 514.7 190.5 C515.5 189.7 512 184.9 505.6 178.2 L499.6 172 479.8 172 C460.2 172 455 171.2 455 168.4 C455 166.4 457.3 165.1 464 163.4 C472.2 161.3 481.4 162 490.7 165.6 C495.6 167.5 501.1 168.5 511 169.4 C531.3 171.3 541 174.7 541 179.9 C541 182.3 535.2 186.9 527.7 190.6 C524.5 192.1 522.1 193.6 522.2 193.9 C527.7 203.3 535.3 223.8 538.5 237.9 C540 244.5 540.3 245.1 542.3 244.6 C558.1 240.6 608 236.6 664.7 234.8 C701.3 233.7 775.7 234.9 799.4 237 C820 238.9 833.3 242.5 834.7 246.8 C835.3 248.5 831 248.2 830.3 246.5 C829.4 244.1 811.5 241.2 783.5 238.9 C761.6 237.2 686.2 236.6 656.5 237.8 C609.5 239.9 568.4 243.3 550.5 246.8 C542.7 248.3 541.5 248.8 541.6 250.5 C541.6 251.6 542.5 258.5 543.5 266 C545.7 282.5 546.2 319.6 544.2 322.3 C542.8 324.2 540.6 324.4 538.6 323 M537.5 313.6 C536.1 306.7 530 255.3 530.5 253.9 C530.8 253 532 251.8 533.3 251.2 C535.7 250.1 535.7 250.2 536.8 257.3 C539.8 276.9 541.1 311.2 539 314.5 C538.1 315.7 537.9 315.6 537.5 313.6 M515.5 184.1 C513.5 181.4 510.1 177.6 507.9 175.6 L503.9 172 509.9 172 C517.1 172 530.8 173.8 533.2 175.1 C534.2 175.6 535 176.5 535 177 C535 178.9 529.1 183.9 524 186.5 L519 189 515.5 184.1 M461.7 168.5 C466.5 164.8 477.8 164.2 487.5 167.2 L491.5 168.4 483.2 169.2 C478.7 169.6 471.6 170 467.5 170 C460.8 170 460.2 169.8 461.7 168.5 M54.7 252 C38.1 250 31 243 31 229 C31.1 221.8 33.1 213.2 40.4 190.5 C49.3 162.2 57.9 125.8 59.5 109.2 C60.2 102.2 60.1 101.9 57.6 99.9 C54.2 97.2 54.2 95.7 57.7 96.1 C61.4 96.6 63.9 101.7 63.9 108.7 C64 120.2 56.8 151 43.4 197.6 C36.4 222 35 228.1 34.9 234 C34.9 243.3 36.7 245.2 47 247 C53.2 248.1 58.6 248 79.5 246.6 C103.3 245.1 160 240 160.8 239.3 C161.1 239.1 160.1 235.5 158.7 231.2 C155.9 222.7 153.6 210.2 151.9 194 C150.2 177.6 151.2 179 142.2 178.9 C132.5 178.8 125.8 177.8 126.2 176.5 C126.3 175.8 130.9 175.6 138.3 175.8 L150.2 176.2 149.6 173.3 C146.5 157.5 145.5 113.2 147.8 97.5 C150.1 82.4 152.5 79.2 158.1 83.9 C160.1 85.6 160.2 85.9 158.6 85.9 C156.1 86 154.3 90.9 152.9 101.5 C151.7 110.2 152.2 157.7 153.6 170.8 L154.2 176.2 163.5 175.8 C171.3 175.4 173.4 175 176 173.1 C179.2 170.7 182 170.6 182.7 172.7 C183.5 175.1 174.6 178 164.5 178.6 C158.2 179 155 179.7 155 180.4 C155 183 160 220.4 161 224.8 C161.6 227.3 162.7 231.6 163.6 234.2 C165 238.7 165.3 238.9 168.8 238.9 C170.8 238.9 173 238.6 173.6 238.2 C176 236.7 181.2 218.7 181.7 210.2 C182 205.7 182.5 202 182.9 202 C183.3 202 184.4 202.8 185.4 203.9 C186.9 205.6 187.1 207 186.5 212.8 C186.2 216.7 184.8 223.8 183.5 228.6 C182.2 233.5 181.2 237.5 181.3 237.6 C181.4 237.7 189.1 237 198.5 236.2 C224 233.9 289.3 234 306 236.3 C324.3 238.9 346.7 245.2 352.4 249.5 C355.8 252 353.6 251.9 345.4 249 C335.6 245.5 321.9 242.5 308 240.8 C293.6 239 222.6 239 198 240.8 C179.7 242.2 179.6 242.2 177.2 245.1 C174.3 248.6 170.9 248.8 166.7 245.8 L163.6 243.6 135.5 246.3 C120.1 247.8 102.2 249.7 95.7 250.5 C79.4 252.5 63.3 253.1 54.7 252 M295.7 225.7 C291.8 223.5 288.1 215.8 284.9 203.5 C283.1 196.9 281.3 190.7 280.8 189.7 C278.3 185 275.1 189.7 269 206.8 C263.2 223 261.3 226 258.2 224.1 C254.5 221.8 254.2 210.9 256.5 159 C257.3 140.5 257.9 124.2 257.9 122.7 C257.9 120.7 258.5 120 259.8 120 C263.1 120 264.2 122.4 263.6 128.7 C263.2 131.9 262.3 146.6 261.5 161.5 C260.7 176.3 259.8 192.1 259.5 196.5 C259.3 200.9 259.4 206.4 259.8 208.9 L260.5 213.3 264.3 202.4 C270.3 185.2 273.7 181.2 279.8 184.4 C284.3 186.7 286.7 191.6 289.5 204 C292.1 216.1 294.4 221.2 297.4 221.8 C298.4 222 301 221.6 303.2 220.9 C306.5 219.8 307.2 219.8 308.6 221.2 C310 222.6 309.9 222.9 307.6 224.4 C303.9 226.6 298.4 227.2 295.7 225.7 M121.2 223.2 C119.7 221 119.4 217.6 119.1 202 L118.8 183.5 120.9 185.4 C122.8 187.1 123 188.4 123 202.8 C123 217.3 123.1 218.5 125.1 220.6 C126.8 222.4 127 223.2 126.1 224.4 C124.4 226.6 123.2 226.3 121.2 223.2 M198 224.9 C188.4 221.6 190.4 209.1 203.1 192.2 C212.6 179.6 224 168.9 224 172.6 C224 172.9 221.6 175.8 218.6 178.9 C211.3 186.8 201 200.6 198.8 205.5 C196.1 211.3 196.4 216.1 199.5 219 C201.9 221.2 202.9 221.4 210.8 221.4 C224.6 221.2 237 216.3 241.1 209.3 C245.5 201.7 242.4 192.7 234.2 189.3 C231.4 188.1 231 187.6 232 186.4 C236.1 181.5 249 191.2 249 199.3 C249 203.6 245.4 210.3 241.3 213.9 C231.4 222.6 208.3 228.5 198 224.9 M734.2 223.2 C732.7 221 732.4 217.6 732.1 202 L731.8 183.5 733.9 185.4 C735.8 187.1 736 188.4 736 202.8 C736 217.3 736.1 218.5 738.1 220.6 C739.8 222.4 740 223.2 739.1 224.4 C737.4 226.6 736.2 226.3 734.2 223.2 M79.4 223.6 C73.3 221.8 69.9 219.1 67.5 214.5 C65.8 211 65.7 210 66.8 205 C68.1 198.7 71.7 193.1 77.3 188.5 C82.5 184.4 89.4 184.3 96.3 188.3 C107.2 194.7 101.7 201.4 81.5 206.4 C72.6 208.6 72.5 208.7 72.7 211.6 C73.2 218.2 78.4 222.4 86 222.3 C91.1 222.2 98.3 219 100.2 215.9 C101.6 213.7 107 213.2 107 215.3 C107 217 103.3 220.3 99.2 222.3 C94.6 224.6 84.9 225.2 79.4 223.6 M74 202.2 C77 194.6 84.2 187 88.4 187 C89.8 187 92.1 188 93.5 189.3 C98.9 193.9 94.9 198.6 82.2 202.9 C73.6 205.7 72.7 205.6 74 202.2 M610 221.9 C607.2 219 606 216.1 604.4 208.6 L603.8 205.7 599.7 209.9 C597.2 212.3 591.7 216 586.3 218.6 C578.8 222.4 575.8 223.3 570.1 223.7 C560.8 224.4 554.8 222.7 550.9 218.3 C548.4 215.3 548 214.1 548 209.1 C548 198.4 556.7 185.7 567.9 180 C576.4 175.7 588.2 176.3 594.5 181.5 L597.5 183.9 594.7 183.9 C593.2 183.9 590.5 183.1 588.7 182 C583.7 178.9 576.4 179.2 570.9 182.8 C562.3 188.3 555.1 198.6 553.4 208.1 C552.1 215.2 557.9 222 565.4 222 C573.5 222 591.3 212.6 598.7 204.5 C602.9 199.9 605.8 198.9 607.8 201.2 C608.4 201.9 609.5 205.8 610.4 209.9 C611.4 215.1 612.8 218.5 614.9 221.1 L618 225 615.5 225 C614 225 611.7 223.7 610 221.9 M684.5 223 C670.2 219.8 662 214 662 207 C662 198.4 688.4 183.6 705.4 182.7 C711.5 182.4 712.6 184.4 706.9 185.3 C702.4 186.1 694.1 189.4 681.6 195.5 C668.4 202 664.4 209.2 671.2 214.3 C677.7 219.1 694.6 222.6 706.3 221.6 C714.6 220.8 717.2 219.6 716.8 216.6 C716.5 214.8 716.9 214.5 718.9 214.7 C723.7 215.3 724.4 220.2 720 222.4 C714.9 225 694.7 225.4 684.5 223 M808 221.9 C805.2 219 804 216.1 802.4 208.6 L801.8 205.7 797.7 209.9 C795.2 212.3 789.7 216 784.3 218.6 C776.8 222.4 773.8 223.3 768.1 223.7 C758.8 224.4 752.8 222.7 748.9 218.3 C746.4 215.3 746 214.1 746 209.1 C746 198.4 754.7 185.7 765.9 180 C774.4 175.7 786.2 176.3 792.5 181.5 L795.5 183.9 792.7 183.9 C791.2 183.9 788.5 183.1 786.7 182 C781.7 178.9 774.4 179.2 768.9 182.8 C760.3 188.3 753.1 198.6 751.4 208.1 C750.1 215.2 755.9 222 763.4 222 C771.5 222 789.3 212.6 796.7 204.5 C800.9 199.9 803.8 198.9 805.8 201.2 C806.4 201.9 807.5 205.8 808.4 209.9 C809.4 215.1 810.8 218.5 812.9 221.1 L816 225 813.5 225 C812 225 809.7 223.7 808 221.9 M623.4 219.8 C621.3 217.2 620.8 215.7 621.1 212 C621.4 207.1 620 202.2 616.3 194.7 C613.4 188.8 613.4 188.7 616.7 189.1 C618.9 189.4 620 190.6 622.5 195.5 C624.1 198.8 625.6 201.7 625.7 201.9 C625.9 202.2 627.3 201.6 628.7 200.6 C638.4 194.5 655.8 187.5 660.1 188.1 C664.5 188.8 662.8 190.6 655.9 192.3 C646 194.9 635.7 200.3 631.6 205 L628.2 209 629.6 214.1 C631.8 222.6 628.3 225.8 623.4 219.8 M118.5 174.5 C117.1 173.1 116 171.5 116 170.8 C116 170.1 114.1 167.4 111.8 164.7 C109 161.4 108 159.5 108.7 158.8 C110.2 157.3 113 159.1 118 164.7 C123.3 170.7 124.5 173.4 122.5 175.5 C121.1 176.8 120.7 176.7 118.5 174.5 M731.5 174.5 C730.1 173.1 729 171.5 729 170.8 C729 170.1 727.1 167.4 724.8 164.7 C722 161.4 721 159.5 721.7 158.8 C723.2 157.3 726 159.1 731 164.7 C736.3 170.7 737.5 173.4 735.5 175.5 C734.1 176.8 733.7 176.7 731.5 174.5 "/>
 </g>
</svg>